<svg width="173" height="32" viewBox="0 0 173 32" fill="none" xmlns="http://www.w3.org/2000/svg">
<g clip-path="url(#clip0_1600_207)">
<path d="M32.9027 22.762C32.173 22.6061 31.5634 22.3861 31.0739 22.0927C31.1016 21.5976 31.1385 21.1575 31.1847 20.7907C31.2309 20.4239 31.3048 20.0481 31.4064 19.6721C31.9421 19.9839 32.5333 20.2131 33.1983 20.3782C33.8634 20.5432 34.5284 20.6165 35.1934 20.6165C36.0986 20.6165 36.7914 20.4515 37.2809 20.1122C37.7705 19.773 38.0107 19.2871 38.0107 18.6636C38.0107 18.2235 37.8998 17.8567 37.6781 17.5541C37.4565 17.2515 37.1793 17.004 36.8468 16.8207C36.5143 16.6281 36.0894 16.4355 35.5721 16.2247L34.2605 15.7203C32.0899 14.8676 31 13.3915 31 11.301C31 9.98071 31.4433 8.93543 32.3393 8.17442C33.2352 7.41341 34.5931 7.02832 36.4312 7.02832C37.9276 7.02832 39.2391 7.25753 40.3752 7.7068C40.3475 8.12857 40.3013 8.51366 40.2551 8.8529C40.1997 9.19215 40.1258 9.57726 40.0242 10.0174C39.4515 9.81565 38.8604 9.65059 38.2508 9.54056C37.6412 9.43054 37.0869 9.37559 36.5697 9.37559C35.6552 9.37559 34.981 9.54055 34.5654 9.87063C34.1405 10.2007 33.9372 10.6409 33.9372 11.2002C33.9372 11.8053 34.1312 12.282 34.5099 12.6304C34.8978 12.9789 35.4059 13.2723 36.0432 13.5107L37.3549 13.9966C39.7657 14.8951 40.9664 16.3805 40.9664 18.4618C40.9664 19.342 40.7447 20.1214 40.3106 20.8091C39.8765 21.4875 39.2299 22.0285 38.3709 22.4136C37.5119 22.7987 36.4681 23.0004 35.2211 23.0004C34.4083 23.0004 33.6324 22.9271 32.9027 22.7712V22.762Z" fill="white"/>
<path d="M51.995 11.9241V22.615H49.3994L49.224 21.0747C48.6606 22.2758 47.7369 22.8809 46.453 22.8809C45.1691 22.8809 44.1253 22.4133 43.3679 21.4872C42.6105 20.5612 42.241 19.1308 42.241 17.2054C42.241 15.2799 42.6844 13.9046 43.5711 12.8961C44.4578 11.8875 45.8803 11.374 47.8477 11.374C49.3256 11.374 50.7111 11.5574 51.995 11.9241ZM49.1778 19.8919V13.7762C48.7806 13.6846 48.3095 13.6479 47.783 13.6479C46.7947 13.6479 46.1019 13.9414 45.714 14.5373C45.326 15.1333 45.1228 16.0043 45.1228 17.1412C45.1228 18.3607 45.3077 19.2409 45.6771 19.791C46.0466 20.3412 46.5915 20.6162 47.3212 20.6162C48.0509 20.6162 48.6975 20.3778 49.187 19.8919H49.1778Z" fill="white"/>
<path d="M62.5898 12.4097C63.3287 13.0974 63.6981 14.0784 63.6981 15.362V22.6238H60.8625V15.6739C60.8625 14.9404 60.7055 14.4086 60.3822 14.0877C60.0681 13.7668 59.5324 13.6017 58.775 13.6017C58.2577 13.6017 57.722 13.6567 57.1771 13.7759V22.6238H54.3413V12.0797C55.0618 11.8596 55.8192 11.6855 56.5951 11.5663C57.371 11.4379 58.1191 11.3828 58.8488 11.3828C60.6038 11.3828 61.8601 11.7312 62.599 12.4189L62.5898 12.4097Z" fill="white"/>
<path d="M69.0186 20.1853C69.2588 20.4604 69.6283 20.5888 70.1271 20.5888C70.3673 20.5888 70.6166 20.5522 70.8845 20.488C71.1523 20.4238 71.3925 20.3413 71.6142 20.2312C71.5403 21.1389 71.4387 21.8907 71.3002 22.4775C70.7829 22.7434 70.1363 22.8718 69.3696 22.8718C68.215 22.8718 67.3376 22.5601 66.7279 21.9458C66.1183 21.3315 65.8228 20.3962 65.8228 19.1493V8.58689C66.691 8.33933 67.6423 8.21094 68.6584 8.21094V11.6217H71.7158C71.6696 12.3827 71.5865 13.1254 71.4756 13.8406H68.6584V18.8559C68.6584 19.461 68.7785 19.8919 69.0094 20.167L69.0186 20.1853Z" fill="white"/>
<path d="M82.6984 11.9241V22.615H80.1028L79.9274 21.0747C79.3639 22.2758 78.4403 22.8809 77.1563 22.8809C75.8724 22.8809 74.8287 22.4133 74.0713 21.4872C73.3139 20.5612 72.9443 19.1308 72.9443 17.2054C72.9443 15.2799 73.3878 13.9046 74.2745 12.8961C75.1612 11.8875 76.5837 11.374 78.5511 11.374C80.029 11.374 81.4145 11.5574 82.6984 11.9241ZM79.8811 19.8919V13.7762C79.484 13.6846 79.0129 13.6479 78.4864 13.6479C77.4981 13.6479 76.8053 13.9414 76.4174 14.5373C76.0294 15.1333 75.8262 16.0043 75.8262 17.1412C75.8262 18.3607 76.011 19.2409 76.3805 19.791C76.75 20.3412 77.2948 20.6162 78.0245 20.6162C78.7542 20.6162 79.4008 20.3778 79.8904 19.8919H79.8811Z" fill="white"/>
<path d="M93.2928 12.4097C94.0317 13.0974 94.4013 14.0784 94.4013 15.362V22.6238H91.5655V15.6739C91.5655 14.9404 91.4085 14.4086 91.0852 14.0877C90.7711 13.7668 90.2354 13.6017 89.478 13.6017C88.9607 13.6017 88.425 13.6567 87.8801 13.7759V22.6238H85.0444V12.0797C85.7649 11.8596 86.5223 11.6855 87.2981 11.5663C88.074 11.4379 88.8223 11.3828 89.552 11.3828C91.307 11.3828 92.5631 11.7312 93.302 12.4189L93.2928 12.4097Z" fill="white"/>
<path d="M105.928 11.942V22.6145H103.314L103.157 21.12C102.612 22.2936 101.689 22.8804 100.386 22.8804C99.5274 22.8804 98.7791 22.6787 98.1326 22.2753C97.486 21.8718 96.9872 21.2483 96.627 20.414C96.2667 19.5796 96.082 18.5253 96.082 17.2691C96.082 15.3804 96.5253 13.9225 97.4213 12.9048C98.3173 11.887 99.7306 11.3735 101.67 11.3735C102.012 11.3735 102.492 11.3919 103.111 11.4194V7.39431C104.026 7.12841 104.968 7 105.928 7V11.9328H105.947L105.928 11.9512V11.942ZM102.308 20.4231C102.612 20.2948 102.88 20.1298 103.12 19.9097V13.7666C102.705 13.6749 102.252 13.6382 101.744 13.6382C100.737 13.6382 100.026 13.9317 99.6012 14.5185C99.1763 15.1053 98.9731 15.9855 98.9731 17.1591C98.9731 18.3327 99.1579 19.2404 99.5366 19.7905C99.9153 20.3407 100.506 20.6158 101.319 20.6158C101.67 20.6158 102.003 20.5515 102.308 20.4323V20.4231Z" fill="white"/>
<path d="M117.474 17.2509C117.456 17.5718 117.428 17.856 117.4 18.1127H110.547C110.676 19.0479 110.999 19.7173 111.498 20.1024C111.997 20.4874 112.745 20.6892 113.733 20.6892C114.916 20.6892 116.07 20.4141 117.188 19.8731C117.114 20.7533 116.994 21.5235 116.837 22.1837C115.895 22.6513 114.74 22.8897 113.382 22.8897C111.443 22.8897 110.011 22.3762 109.078 21.3585C108.145 20.3407 107.683 18.9013 107.683 17.0308C107.683 15.9122 107.868 14.9403 108.238 14.0967C108.607 13.2532 109.171 12.5931 109.937 12.1072C110.695 11.6212 111.637 11.3828 112.764 11.3828C113.826 11.3828 114.713 11.5938 115.424 12.0247C116.135 12.4465 116.662 13.0332 116.994 13.7667C117.336 14.5002 117.502 15.3437 117.502 16.2973C117.502 16.6182 117.493 16.9391 117.465 17.2692L117.474 17.2509ZM111.203 14.1885C110.842 14.6103 110.611 15.2429 110.528 16.0772H114.74C114.722 15.2429 114.556 14.6103 114.223 14.1885C113.891 13.7668 113.382 13.5466 112.708 13.5466C112.071 13.5466 111.572 13.7576 111.212 14.1885H111.203Z" fill="white"/>
<path d="M125.991 11.5663C125.991 11.9789 125.963 12.3914 125.917 12.7949C125.862 13.2074 125.806 13.565 125.732 13.8767C125.196 13.785 124.559 13.7483 123.802 13.7483C123.303 13.7483 122.823 13.7759 122.361 13.8401V22.6238H119.525V11.9972C120.162 11.8321 120.837 11.7037 121.557 11.5937C122.278 11.4837 122.97 11.4287 123.654 11.4287C124.541 11.4287 125.326 11.4837 126 11.5845L125.991 11.5663Z" fill="white"/>
<path fill-rule="evenodd" clip-rule="evenodd" d="M18.6106 10.9763C18.5699 10.1174 18.326 9.25845 17.8585 8.47942L13.7928 1.64785C13.4777 1.1285 13.2642 0.569291 13.1524 0L12.9797 0.289556C11.9735 1.97745 11.9735 4.06494 12.9797 5.75284L16.2322 11.216C17.2385 12.9039 17.2385 14.9913 16.2322 16.6792L16.0594 16.9688C15.9374 16.3996 15.724 15.8402 15.419 15.3209L10.5403 7.12113C10.2252 6.60178 10.0117 6.04245 9.89993 5.47316L9.72709 5.76284C8.72084 7.45073 8.72084 9.52811 9.72709 11.216L12.9899 16.6992C13.9961 18.3871 13.9961 20.4744 12.9899 22.1623L12.8171 22.452C12.6951 21.8827 12.4816 21.3234 12.1767 20.804L8.11102 13.9726C7.56215 13.0537 7.31822 12.025 7.35888 11.0063C2.99843 12.1049 0 14.4519 0 17.1685C0 20.9438 5.81397 24 13.0001 24C20.1862 24 26 20.9438 26 17.1685C26 14.4519 22.9914 12.1149 18.6411 11.0063L18.6106 10.9763Z" fill="white"/>
<path d="M140.412 16.2033C140.81 16.8614 141 17.6416 141 18.5253C141 19.4089 140.81 20.2174 140.43 20.8848C140.049 21.5523 139.479 22.0694 138.727 22.4454C137.975 22.8214 137.059 23 135.978 23H131V7.38546C131.51 7.26325 132.141 7.1692 132.876 7.10339C133.619 7.03759 134.353 7 135.088 7C136.929 7 138.286 7.37609 139.176 8.11874C140.058 8.8614 140.507 9.91425 140.507 11.268C140.507 12.0482 140.343 12.7344 140.006 13.3361C139.678 13.9283 139.219 14.3889 138.64 14.7273C139.427 15.0564 140.023 15.5547 140.412 16.2127V16.2033ZM133.636 9.4818V13.8343H135.443C136.203 13.8343 136.791 13.6558 137.214 13.3079C137.638 12.9507 137.845 12.3772 137.845 11.5781C137.845 10.8731 137.621 10.3279 137.18 9.95183C136.739 9.5758 136.056 9.38781 135.149 9.38781C134.578 9.38781 134.077 9.41599 133.636 9.4818ZM137.629 20.0952C138.061 19.738 138.286 19.1833 138.286 18.4125C138.286 16.9083 137.404 16.1563 135.65 16.1563H133.636V20.6216H135.728C136.557 20.6216 137.188 20.443 137.629 20.0952Z" fill="white"/>
<path d="M142.5 7.40381C143.487 7.13151 144.484 7 145.5 7V23H142.5V7.40381Z" fill="white"/>
<path d="M151.989 23C150.951 23 150.053 22.7827 149.295 22.348C148.551 21.9133 147.982 21.2823 147.589 20.4551C147.196 19.6278 147 18.6463 147 17.5105C147 16.3607 147.189 15.3722 147.568 14.5449C147.961 13.7177 148.53 13.0867 149.274 12.652C150.032 12.2173 150.937 12 151.989 12C153.042 12 153.94 12.2173 154.684 12.652C155.442 13.0867 156.018 13.7177 156.411 14.5449C156.804 15.3722 157 16.3607 157 17.5105C157 18.6463 156.804 19.6278 156.411 20.4551C156.018 21.2823 155.442 21.9133 154.684 22.348C153.94 22.7827 153.042 23 151.989 23ZM151.989 20.8337C152.761 20.8337 153.33 20.5602 153.695 20.0134C154.06 19.4665 154.242 18.6323 154.242 17.5105C154.242 16.3748 154.06 15.5335 153.695 14.9866C153.33 14.4398 152.761 14.1663 151.989 14.1663C151.232 14.1663 150.67 14.4398 150.305 14.9866C149.94 15.5335 149.758 16.3748 149.758 17.5105C149.758 18.6323 149.94 19.4665 150.305 20.0134C150.67 20.5602 151.232 20.8337 151.989 20.8337Z" fill="white"/>
<path fill-rule="evenodd" clip-rule="evenodd" d="M159.754 23.2292C160.663 23.7429 161.741 23.9998 162.987 23.9998C164.251 23.9998 165.328 23.7429 166.221 23.2292C166.333 23.1661 166.441 23.0994 166.546 23.0293C169.051 23.3015 171 25.423 171 27.9998C171 29.6354 170.215 31.0875 169 31.9998H157C155.785 31.0875 155 29.6354 155 27.9998C155 25.4288 156.941 23.311 159.437 23.0311C159.539 23.1006 159.645 23.1666 159.754 23.2292ZM160 25.9998C158.895 25.9998 158 26.8952 158 27.9998C158 29.1043 158.895 29.9998 160 29.9998H166C167.105 29.9998 168 29.1043 168 27.9998C168 26.8952 167.105 25.9998 166 25.9998H160Z" fill="white"/>
<path fill-rule="evenodd" clip-rule="evenodd" d="M165.4 12.5001C164.715 12.1667 163.911 12 162.989 12C161.937 12 161.032 12.2173 160.274 12.652C159.53 13.0867 158.961 13.7177 158.568 14.5449C158.189 15.3722 158 16.3607 158 17.5105C158 18.6463 158.196 19.6278 158.589 20.4551C158.982 21.2823 159.551 21.9133 160.295 22.348C161.053 22.7827 161.951 23 162.989 23C164.042 23 164.94 22.7827 165.684 22.348C166.442 21.9133 167.018 21.2823 167.411 20.4551C167.804 19.6278 168 18.6463 168 17.5105C168 16.386 167.812 15.4157 167.436 14.5996H165.4V12.5001ZM164.695 20.0134C164.33 20.5602 163.761 20.8337 162.989 20.8337C162.232 20.8337 161.67 20.5602 161.305 20.0134C160.94 19.4665 160.758 18.6322 160.758 17.5105C160.758 16.3748 160.94 15.5335 161.305 14.9866C161.67 14.4398 162.232 14.1663 162.989 14.1663C163.761 14.1663 164.33 14.4398 164.695 14.9866C165.06 15.5335 165.242 16.3748 165.242 17.5105C165.242 18.6322 165.06 19.4665 164.695 20.0134Z" fill="white"/>
<path d="M173 10C173 11.656 171.656 13 170 13H167V10C167 8.344 168.344 7 170 7C171.656 7 173 8.344 173 10Z" fill="white"/>
</g>
<defs>
<clipPath id="clip0_1600_207">
<rect width="173" height="32" fill="white"/>
</clipPath>
</defs>
</svg>
